<?xml version="1.0" encoding="utf-8"?>
<!-- Generator: Adobe Illustrator 15.0.2, SVG Export Plug-In . SVG Version: 6.00 Build 0)  -->
<!DOCTYPE svg PUBLIC "-//W3C//DTD SVG 1.1//EN" "http://www.w3.org/Graphics/SVG/1.1/DTD/svg11.dtd">
<svg version="1.1" id="Calque_1" xmlns="http://www.w3.org/2000/svg" xmlns:xlink="http://www.w3.org/1999/xlink" x="0px" y="0px"
	 width="776.862px" height="134.022px" viewBox="0 0 776.862 134.022" enable-background="new 0 0 776.862 134.022"
	 xml:space="preserve">
<g>
	<g>
		<path fill-rule="evenodd" clip-rule="evenodd" fill="#EC7404" d="M558.036,114.178c2.602,0,4.713,1.912,4.713,4.268l-0.002,15.576
			h-3.67v-14.881c0-1.207-1.088-2.184-2.43-2.184h-7.766v-2.779H558.036L558.036,114.178z M546.577,123.407h10.195v2.777h-10.195
			v7.838h-3.672v-19.844h3.672V123.407L546.577,123.407z M591.72,129.061c0,1.205,1.088,2.184,2.43,2.184h11.559v2.777h-12.947
			c-2.602,0-4.713-1.91-4.713-4.266v-11.312c0-2.354,2.111-4.266,4.713-4.266h12.947v2.779h-11.559c-1.342,0-2.43,0.977-2.43,2.184
			V129.061L591.72,129.061z M614.538,116.958c-0.438,0-0.793,0.322-0.793,0.719v5.035h12.004v2.779h-12.004v5.035
			c0,0.396,0.355,0.719,0.793,0.719h13.146v2.777h-16.123c-0.822,0-1.488-0.621-1.488-1.389v-17.064
			c0-0.768,0.666-1.391,1.488-1.391h16.123v2.779H614.538L614.538,116.958z M571.479,130.526c0,0.396,0.355,0.719,0.793,0.719
			h12.898v2.777h-15.844c-0.822,0-1.488-0.621-1.488-1.389l-0.029-18.455h3.67V130.526L571.479,130.526z M648.056,128.012
			c0.229,0.061,0.314-0.047,0.314-0.178v-13.656h3.672v19.844h-1.836c-0.631,0-1.189-0.24-1.52-0.607l-11.908-13.227
			c-0.229-0.061-0.312,0.049-0.312,0.178v13.656h-3.672v-18.488v-1.355h1.836c0.629,0,1.188,0.242,1.518,0.607L648.056,128.012
			L648.056,128.012z"/>
		<path fill="#949597" d="M776.862,125.746H662.058v-1.588h114.805V125.746z M532.983,125.746H0v-1.588h532.983V125.746z
			 M776.862,1.587H0V0h776.862V1.587z"/>
	</g>
	<path fill="#4066AA" d="M206.459,35.656v46.701c0,1.135,1.015,2.055,2.268,2.055h37.7v7.938h-46.204
		c-2.349,0-4.252-1.777-4.252-3.969V35.656H206.459L206.459,35.656z"/>
	<path fill="#4066AA" d="M265.702,78.176c0,3.443,3.108,6.237,6.944,6.237h18.994c3.836,0,6.944-2.793,6.944-6.237v-3.969
		c0-3.443-3.108-6.236-6.944-6.236h-22.963c-7.436,0-13.464-5.457-13.464-12.188v-7.938c0-6.731,6.028-12.188,13.464-12.188h26.932
		c7.436,0,13.463,5.458,13.463,12.188v1.985h-10.487c0-3.444-3.108-6.236-6.944-6.236h-18.994c-3.836,0-6.944,2.792-6.944,6.236
		v3.968c0,3.444,3.108,6.236,6.944,6.236h22.963c7.436,0,13.463,5.457,13.463,12.188v7.938c0,6.733-6.027,12.19-13.463,12.19
		h-26.932c-7.436,0-13.464-5.457-13.464-12.19v-1.984H265.702L265.702,78.176z"/>
	<path fill-rule="evenodd" clip-rule="evenodd" fill="#4066AA" d="M171.025,62.02h-35.717V45.721c0-1.175,1.016-2.126,2.268-2.126
		h26.504c3.836,0,6.945,2.792,6.945,6.236V62.02L171.025,62.02z M168.049,35.657c7.438,0,13.465,5.458,13.465,12.189l-0.001,44.505
		h-10.488l0.001-22.395h-35.717v22.395H124.82V39.626c0-2.192,1.904-3.969,4.252-3.969H168.049L168.049,35.657z"/>
	<path fill="#4066AA" d="M334.472,43.606c-1.252,0-2.268,0.92-2.268,2.055v14.386h34.299v7.938h-34.299v14.387
		c0,1.133,1.016,2.053,2.268,2.053h37.701v7.938h-46.205c-2.348,0-4.252-1.777-4.252-3.967V39.638c0-2.192,1.904-3.969,4.252-3.969
		h46.205v7.938H334.472L334.472,43.606z"/>
	<path fill="#4066AA" d="M467.354,52.215c-0.105-0.117-0.256-0.191-0.426-0.191c-0.312,0-0.566,0.254-0.566,0.566v39.758
		c-0.342,0.053-10.488,0-10.488,0V35.656h5.244c1.801,0,3.393,0.682,4.336,1.729l20.041,22.266l20.09-22.284
		c0.949-1.045,2.516-1.711,4.289-1.711h5.244v56.692c0,0-10.148,0.053-10.488,0V52.59c0-0.312-0.254-0.566-0.568-0.566
		c-0.164,0-0.312,0.07-0.416,0.184l-15.219,16.896h-5.863L467.354,52.215L467.354,52.215z"/>
	<path fill-rule="evenodd" clip-rule="evenodd" fill="#4066AA" d="M431.212,62.042h-35.717V45.742c0-1.174,1.016-2.126,2.268-2.126
		h26.504c3.836,0,6.945,2.792,6.945,6.236V62.042L431.212,62.042z M428.235,35.679c7.436,0,13.465,5.457,13.465,12.188
		l-0.002,44.504H431.21l0.002-22.393h-35.717v22.393h-10.488V39.648c0-2.193,1.904-3.969,4.252-3.969H428.235L428.235,35.679z"/>
	<path fill-rule="evenodd" clip-rule="evenodd" fill="#4066AA" d="M575.671,62.042h-35.717V45.743c0-1.176,1.016-2.127,2.268-2.127
		h26.506c3.834,0,6.943,2.793,6.943,6.236V62.042L575.671,62.042z M572.696,35.679c7.436,0,13.463,5.457,13.463,12.189v44.503
		h-10.488V69.979h-35.717v22.392h-10.488V39.647c0-2.191,1.904-3.969,4.252-3.969H572.696L572.696,35.679z"/>
	<path fill-rule="evenodd" clip-rule="evenodd" fill="#4066AA" d="M634.608,43.617c3.836,0,6.945,2.792,6.945,6.236v3.963
		c0,3.443-3.109,6.235-6.945,6.235h-23.385l-0.002-14.308c0-1.174,1.016-2.126,2.268-2.126H634.608L634.608,43.617z M637.964,67.989
		l14.078,24.382h-10.475l-12.141-21.025c-1.158-1.996-3.482-3.357-6.162-3.357h-12.041v24.382h-10.488V39.647
		c0-2.191,1.902-3.969,4.25-3.969h33.592c7.436,0,13.465,5.458,13.465,12.189V55.8c0,6.732-6.029,12.189-13.465,12.189H637.964
		L637.964,67.989z"/>
</g>
</svg>
