<svg id="Layer_1" data-name="Layer 1" xmlns="http://www.w3.org/2000/svg" viewBox="0 0 281.94 43.81"><defs><style>.cls-1{fill:#0076c0;}</style></defs><title>Vector Smart Object</title><path d="M363.75,283.69v2.95h-4.13v14.8h-3.71v-14.8h-4.13v-2.95h12Z" transform="translate(-256.24 -283.69)"/><path d="M365.48,301.44V283.69h9.68v2.73h-6v4.38h5.51v2.73h-5.51v5.19h6.17v2.73h-9.88Z" transform="translate(-256.24 -283.69)"/><path d="M377.79,301.44V283.69h3.71v14.8h5.56v2.95h-9.27Z" transform="translate(-256.24 -283.69)"/><path d="M388.68,301.44V283.69h9.69v2.73h-6v4.38h5.51v2.73H392.4v5.19h6.17v2.73h-9.88Z" transform="translate(-256.24 -283.69)"/><path d="M401,283.69h6.19c4.87,0,5.78,3.24,5.78,8.78,0,2.73.42,9-5.92,9h-6V283.69Zm3.71,15h1.79c2.26,0,2.7-1.7,2.7-6.15,0-3.27,0-6.15-2.58-6.15h-1.92v12.29Z" transform="translate(-256.24 -283.69)"/><path d="M419.27,295.29l-4.65-11.6h4.06l2.65,7.5,2.83-7.5h3.79l-5,11.6v6.15h-3.71v-6.15Z" transform="translate(-256.24 -283.69)"/><path d="M429.69,301.44V283.69h5L439.42,296h0V283.69h3.47v17.75H438l-4.84-13h0v13h-3.47Z" transform="translate(-256.24 -283.69)"/><path d="M446.06,301.44V283.69h9.69v2.73h-6v4.38h5.51v2.73h-5.51v5.19h6.17v2.73h-9.88Z" transform="translate(-256.24 -283.69)"/><path d="M464.6,301.44h-2V284.76h3.44l4.21,14h0l4.25-14h3.51v16.68h-2.12V286.6h0l-4.67,14.83h-2l-4.57-14.83h0v14.83Z" transform="translate(-256.24 -283.69)"/><path d="M485.36,284.76h2.7l5.43,16.68h-2.38l-1.2-4h-6.45l-1.25,4h-2.15Zm1.29,2h0L484,295.61h5.34Z" transform="translate(-256.24 -283.69)"/><path d="M497.55,293.77v7.67h-2.12V284.76h5.75c3,0,4,2.08,4,4.16a3.6,3.6,0,0,1-3,3.81v0c1.92,0.3,2.61.95,2.73,4.3a25.21,25.21,0,0,0,.58,4.37h-2.22c-0.6-1.16-.46-3.33-0.65-5.54a2.2,2.2,0,0,0-2.52-2.12h-2.49Zm0-1.85h3.19c1.53,0,2.26-1.32,2.26-2.77a2.27,2.27,0,0,0-2.24-2.54h-3.21v5.31Z" transform="translate(-256.24 -283.69)"/><path d="M510.48,301.44h-2.12V284.76h2.12v16.68Z" transform="translate(-256.24 -283.69)"/><path d="M525.82,284.76v16.68h-2.91L516.33,287h0v14.46h-1.89V284.76h3L523.88,299h0V284.76h1.89Z" transform="translate(-256.24 -283.69)"/><path d="M529.44,301.44V284.76H538v1.85h-6.47V292h6v1.85h-6v5.78h6.61v1.85h-8.73Z" transform="translate(-256.24 -283.69)"/><path class="cls-1" d="M365.91,306.29v1.18h-8.63v5.24h8.08v1.18h-8.08v5.72H366v1.18H355.9V306.29h10Z" transform="translate(-256.24 -283.69)"/><path class="cls-1" d="M367.92,310.31l3.29,9.2h0l3.25-9.2h1.32l-3.92,10.47h-1.36l-4-10.47h1.42Z" transform="translate(-256.24 -283.69)"/><path class="cls-1" d="M378,317.33a3.93,3.93,0,0,0,.62,1.33,3.55,3.55,0,0,0,1.08,1,3,3,0,0,0,1.56.38,3.11,3.11,0,0,0,2.19-.73,3.84,3.84,0,0,0,1.1-1.95h1.28a5.12,5.12,0,0,1-1.49,2.76,4.45,4.45,0,0,1-3.08,1,4.88,4.88,0,0,1-2.14-.44,3.93,3.93,0,0,1-1.47-1.2,5.21,5.21,0,0,1-.84-1.77,8,8,0,0,1-.27-2.12,7.62,7.62,0,0,1,.27-2,5.46,5.46,0,0,1,.84-1.78,4.23,4.23,0,0,1,1.47-1.26,4.53,4.53,0,0,1,2.14-.48,4.14,4.14,0,0,1,3.6,1.84,5.52,5.52,0,0,1,.8,1.89,8.28,8.28,0,0,1,.2,2.16H377.8A5.66,5.66,0,0,0,378,317.33Zm6.33-3.91a3.86,3.86,0,0,0-.66-1.19,3.3,3.3,0,0,0-1-.83,3,3,0,0,0-1.38-.31,3,3,0,0,0-1.4.31,3.3,3.3,0,0,0-1,.83,4.16,4.16,0,0,0-.68,1.2,5.85,5.85,0,0,0-.33,1.39h6.78A4.64,4.64,0,0,0,384.33,313.42Z" transform="translate(-256.24 -283.69)"/><path class="cls-1" d="M388.74,310.31v2.46h0a4,4,0,0,1,1.51-2,4,4,0,0,1,2.45-.63v1.28a3.86,3.86,0,0,0-1.58.23,3.55,3.55,0,0,0-1.23.78,3.52,3.52,0,0,0-.8,1.21,4,4,0,0,0-.28,1.53v5.58h-1.28V310.31h1.18Z" transform="translate(-256.24 -283.69)"/><path class="cls-1" d="M394.12,310.31l3.45,8.93,3.23-8.93h1.28l-4.55,12.06a11.9,11.9,0,0,1-.53,1.11,2.55,2.55,0,0,1-.54.69,1.8,1.8,0,0,1-.69.37,3.79,3.79,0,0,1-1,.11l-0.6,0a1.23,1.23,0,0,1-.38-0.07v-1.08l0.44,0.07a3.05,3.05,0,0,0,.44,0,1.74,1.74,0,0,0,.7-0.12,1.49,1.49,0,0,0,.48-0.34,1.91,1.91,0,0,0,.35-0.52l0.3-.67,0.45-1.18-4.18-10.43h1.36Z" transform="translate(-256.24 -283.69)"/><path class="cls-1" d="M403.62,310.31l2.68,9h0l2.56-9h1.44l2.56,9h0l2.68-9H417l-3.37,10.47h-1.4L409.63,312h0L407,320.79h-1.4l-3.37-10.47h1.36Z" transform="translate(-256.24 -283.69)"/><path class="cls-1" d="M419.6,306.29v5.83h0a3.06,3.06,0,0,1,1.3-1.53,3.81,3.81,0,0,1,2-.58,5.16,5.16,0,0,1,1.84.29,2.9,2.9,0,0,1,1.19.8,3,3,0,0,1,.63,1.27,7.07,7.07,0,0,1,.18,1.68v6.74h-1.28v-6.54a6.15,6.15,0,0,0-.12-1.25,2.65,2.65,0,0,0-.43-1,2.06,2.06,0,0,0-.82-0.67,3,3,0,0,0-1.29-.24,3.25,3.25,0,0,0-1.37.27,3,3,0,0,0-1,.75,3.45,3.45,0,0,0-.65,1.14,4.59,4.59,0,0,0-.25,1.43v6.11h-1.28V306.29h1.28Z" transform="translate(-256.24 -283.69)"/><path class="cls-1" d="M430.17,317.33a3.92,3.92,0,0,0,.62,1.33,3.55,3.55,0,0,0,1.08,1,3,3,0,0,0,1.56.38,3.11,3.11,0,0,0,2.19-.73,3.84,3.84,0,0,0,1.1-1.95H438a5.11,5.11,0,0,1-1.49,2.76,4.45,4.45,0,0,1-3.08,1,4.88,4.88,0,0,1-2.14-.44,3.93,3.93,0,0,1-1.47-1.2,5.23,5.23,0,0,1-.84-1.77,8.07,8.07,0,0,1-.27-2.12,7.66,7.66,0,0,1,.27-2,5.48,5.48,0,0,1,.84-1.78,4.24,4.24,0,0,1,1.47-1.26,4.53,4.53,0,0,1,2.14-.48,4.15,4.15,0,0,1,3.6,1.84,5.51,5.51,0,0,1,.8,1.89,8.28,8.28,0,0,1,.2,2.16H430A5.66,5.66,0,0,0,430.17,317.33Zm6.33-3.91a3.85,3.85,0,0,0-.66-1.19,3.3,3.3,0,0,0-1-.83,3,3,0,0,0-1.38-.31,3,3,0,0,0-1.4.31,3.32,3.32,0,0,0-1,.83,4.2,4.2,0,0,0-.68,1.2,5.82,5.82,0,0,0-.33,1.39h6.78A4.61,4.61,0,0,0,436.5,313.42Z" transform="translate(-256.24 -283.69)"/><path class="cls-1" d="M440.91,310.31v2.46h0a4,4,0,0,1,1.51-2,4,4,0,0,1,2.45-.63v1.28a3.85,3.85,0,0,0-1.58.23,3.55,3.55,0,0,0-1.23.78,3.51,3.51,0,0,0-.8,1.21,4,4,0,0,0-.28,1.53v5.58h-1.28V310.31h1.18Z" transform="translate(-256.24 -283.69)"/><path class="cls-1" d="M446.69,317.33a3.94,3.94,0,0,0,.62,1.33,3.55,3.55,0,0,0,1.08,1,3,3,0,0,0,1.56.38,3.11,3.11,0,0,0,2.19-.73,3.84,3.84,0,0,0,1.1-1.95h1.28A5.13,5.13,0,0,1,453,320.1a4.45,4.45,0,0,1-3.08,1,4.88,4.88,0,0,1-2.14-.44,3.93,3.93,0,0,1-1.47-1.2,5.19,5.19,0,0,1-.84-1.77,8,8,0,0,1-.27-2.12,7.58,7.58,0,0,1,.27-2,5.44,5.44,0,0,1,.84-1.78,4.23,4.23,0,0,1,1.47-1.26,4.53,4.53,0,0,1,2.14-.48,4.14,4.14,0,0,1,3.6,1.84,5.52,5.52,0,0,1,.8,1.89,8.28,8.28,0,0,1,.2,2.16H446.5A5.66,5.66,0,0,0,446.69,317.33Zm6.33-3.91a3.87,3.87,0,0,0-.66-1.19,3.3,3.3,0,0,0-1-.83,3,3,0,0,0-1.38-.31,3,3,0,0,0-1.4.31,3.29,3.29,0,0,0-1,.83,4.11,4.11,0,0,0-.68,1.2,5.87,5.87,0,0,0-.34,1.39h6.78A4.67,4.67,0,0,0,453,313.42Z" transform="translate(-256.24 -283.69)"/><path class="cls-1" d="M455.1,310.29h2.54l2.74,7.84h0l2.66-7.84h2.42l-4.1,11.06q-0.28.71-.55,1.36a4.93,4.93,0,0,1-.66,1.15,2.86,2.86,0,0,1-1,.79,3.34,3.34,0,0,1-1.5.29,10.55,10.55,0,0,1-1.6-.12v-1.95l0.55,0.09a2.86,2.86,0,0,0,.55.05,1.9,1.9,0,0,0,.67-0.1,1.1,1.1,0,0,0,.44-0.29,1.86,1.86,0,0,0,.29-0.46,4.7,4.7,0,0,0,.22-0.61l0.26-.81Z" transform="translate(-256.24 -283.69)"/><path class="cls-1" d="M471.59,321.07a5.72,5.72,0,0,1-2.24-.42,4.78,4.78,0,0,1-1.66-1.15,4.9,4.9,0,0,1-1-1.75,7.13,7.13,0,0,1,0-4.45,4.9,4.9,0,0,1,1-1.75,4.79,4.79,0,0,1,1.66-1.15,6.26,6.26,0,0,1,4.49,0,4.79,4.79,0,0,1,1.66,1.15,4.9,4.9,0,0,1,1,1.75,7.13,7.13,0,0,1,0,4.45,4.9,4.9,0,0,1-1,1.75,4.78,4.78,0,0,1-1.66,1.15A5.72,5.72,0,0,1,471.59,321.07Zm0-1.83a2.65,2.65,0,0,0,1.34-.32,2.82,2.82,0,0,0,.93-0.85,3.74,3.74,0,0,0,.54-1.19,5.3,5.3,0,0,0,.17-1.35,5.35,5.35,0,0,0-.17-1.34,3.64,3.64,0,0,0-.54-1.19,2.88,2.88,0,0,0-.93-0.84,2.93,2.93,0,0,0-2.68,0,2.86,2.86,0,0,0-.93.84,3.6,3.6,0,0,0-.54,1.19,5.36,5.36,0,0,0-.17,1.34,5.3,5.3,0,0,0,.17,1.35,3.7,3.7,0,0,0,.54,1.19,2.8,2.8,0,0,0,.93.85A2.65,2.65,0,0,0,471.59,319.25Z" transform="translate(-256.24 -283.69)"/><path class="cls-1" d="M488,320.79h-2.27v-1.46h0a3.17,3.17,0,0,1-1.27,1.27,3.46,3.46,0,0,1-1.72.48,3.85,3.85,0,0,1-3-1,4.51,4.51,0,0,1-.92-3.1v-6.66h2.31v6.43a2.84,2.84,0,0,0,.53,1.95,1.92,1.92,0,0,0,1.48.57,2.93,2.93,0,0,0,1.22-.22,2.15,2.15,0,0,0,.79-0.6,2.33,2.33,0,0,0,.44-0.9,4.68,4.68,0,0,0,.13-1.14v-6.09H488v10.49Z" transform="translate(-256.24 -283.69)"/><path class="cls-1" d="M491.72,306.29v14.49h-1.28V306.29h1.28Z" transform="translate(-256.24 -283.69)"/><path class="cls-1" d="M500.71,310.46a4.64,4.64,0,0,1,1.55,1.2,5.18,5.18,0,0,1,1,1.76,7.19,7.19,0,0,1,0,4.28,5.17,5.17,0,0,1-1,1.76,4.49,4.49,0,0,1-1.55,1.19,5.36,5.36,0,0,1-4.24,0,4.48,4.48,0,0,1-1.55-1.19,5.21,5.21,0,0,1-1-1.76,7.24,7.24,0,0,1,0-4.28,5.21,5.21,0,0,1,1-1.76,4.63,4.63,0,0,1,1.55-1.2A5.25,5.25,0,0,1,500.71,310.46Zm-3.72,1a3.52,3.52,0,0,0-1.15,1,4.61,4.61,0,0,0-.69,1.43,5.82,5.82,0,0,0,0,3.27,4.61,4.61,0,0,0,.69,1.43,3.53,3.53,0,0,0,1.15,1,3.53,3.53,0,0,0,3.21,0,3.54,3.54,0,0,0,1.15-1,4.57,4.57,0,0,0,.69-1.43,5.81,5.81,0,0,0,0-3.27,4.57,4.57,0,0,0-.69-1.43,3.53,3.53,0,0,0-1.15-1A3.53,3.53,0,0,0,497,311.47Z" transform="translate(-256.24 -283.69)"/><path class="cls-1" d="M512,310.46a4.6,4.6,0,0,1,1.55,1.2,5.19,5.19,0,0,1,1,1.76,7.24,7.24,0,0,1,0,4.28,5.18,5.18,0,0,1-1,1.76,4.46,4.46,0,0,1-1.55,1.19,5.36,5.36,0,0,1-4.24,0,4.49,4.49,0,0,1-1.55-1.19,5.18,5.18,0,0,1-1-1.76,7.23,7.23,0,0,1,0-4.28,5.19,5.19,0,0,1,1-1.76,4.64,4.64,0,0,1,1.55-1.2A5.25,5.25,0,0,1,512,310.46Zm-3.72,1a3.52,3.52,0,0,0-1.15,1,4.62,4.62,0,0,0-.69,1.43,5.86,5.86,0,0,0,0,3.27,4.61,4.61,0,0,0,.69,1.43,3.52,3.52,0,0,0,1.15,1,3.53,3.53,0,0,0,3.21,0,3.53,3.53,0,0,0,1.15-1,4.65,4.65,0,0,0,.69-1.43,5.86,5.86,0,0,0,0-3.27,4.66,4.66,0,0,0-.69-1.43,3.52,3.52,0,0,0-1.15-1A3.53,3.53,0,0,0,508.25,311.47Z" transform="translate(-256.24 -283.69)"/><path class="cls-1" d="M518,306.29v9.09l5.8-5.08h1.71L521,314.19l4.77,6.6h-1.6l-4.14-5.7L518,316.81v4h-1.28V306.29H518Z" transform="translate(-256.24 -283.69)"/><path class="cls-1" d="M524.36,306.18h2.31v0.43h-0.91V309h-0.5v-2.42h-0.9v-0.43Z" transform="translate(-256.24 -283.69)"/><path class="cls-1" d="M527,306.18h0.7l0.79,2.24h0l0.77-2.24H530V309h-0.47v-2.2h0l-0.79,2.2h-0.41l-0.79-2.2h0V309H527v-2.86Z" transform="translate(-256.24 -283.69)"/><polygon class="cls-1" points="47.39 0.43 72.36 0.43 90.47 18.11 64.88 18.11 47.39 0.43"/><polygon class="cls-1" points="42.69 0.43 17.61 0.43 0 18.11 25.09 18.11 42.69 0.43"/><polygon class="cls-1" points="46.07 2 63.44 19.37 63.44 43.81 46.07 26.77 46.07 2"/><polygon class="cls-1" points="44.14 2 44.14 26.77 26.29 43.81 26.29 19.84 44.14 2"/></svg>